<svg width="46" height="48" viewBox="0 0 46 48" fill="none" xmlns="http://www.w3.org/2000/svg">
<g clip-path="url(#clip0_16_1042)">
<path fill-rule="evenodd" clip-rule="evenodd" d="M22.9885 39.4286C24.0523 39.4302 25.1018 39.6733 26.058 40.1395C27.0142 40.6057 27.8521 41.2829 28.5085 42.12C27.8586 42.9663 27.0227 43.6519 26.0656 44.1236C25.1084 44.5954 24.0556 44.8408 22.9885 44.8408C21.9214 44.8408 20.8686 44.5954 19.9115 44.1236C18.9543 43.6519 18.1185 42.9663 17.4685 42.12C18.1215 41.2791 18.9586 40.5992 19.9156 40.1326C20.8726 39.666 21.9238 39.4251 22.9885 39.4286ZM29.9999 37.7143C29.992 38.0877 29.9576 38.46 29.8971 38.8286C28.0177 37.0876 25.5504 36.1203 22.9885 36.1203C20.4267 36.1203 17.9593 37.0876 16.0799 38.8286C16.0186 38.4717 15.9842 38.1107 15.9771 37.7486C15.9771 35.889 16.7158 34.1057 18.0307 32.7908C19.3456 31.4759 21.129 30.7372 22.9885 30.7372C24.8481 30.7372 26.6314 31.4759 27.9463 32.7908C29.2612 34.1057 29.9999 35.889 29.9999 37.7486V37.7143ZM15.3942 11.1943H30.5657L22.9885 25.7143L15.3942 11.1943ZM38.1428 3.60002C38.2325 3.65723 38.3184 3.72022 38.3999 3.78859L42.0171 7.38859C42.4174 7.78088 42.6766 8.29472 42.7542 8.84985C42.8317 9.40499 42.7232 9.97018 42.4456 10.4572L30.7714 31.2C29.3968 29.5602 27.5352 28.4012 25.4571 27.8914L38.1428 3.60002ZM7.83422 3.60002L20.5199 27.8914C18.4388 28.4056 16.5731 29.5635 15.1885 31.2L3.53137 10.4572C3.25167 9.97198 3.14035 9.4079 3.21477 8.85284C3.28919 8.29778 3.54517 7.78295 3.9428 7.38859L7.55994 3.78859C7.64321 3.71933 7.73548 3.66166 7.83422 3.61716V3.60002ZM11.2628 3.20573H34.7485L32.2456 7.98859H13.7314L11.2628 3.20573ZM8.96565 1.54412e-05C7.59248 0.003327 6.27535 0.544949 5.29708 1.50859L1.67994 5.14287C0.795423 6.02524 0.221784 7.17128 0.0455287 8.40816C-0.130727 9.64504 0.0999583 10.9057 0.702796 12L13.3199 34.4229C12.928 35.4768 12.7193 36.59 12.7028 37.7143C12.6408 39.2435 12.9209 40.7672 13.5226 42.1743C14.1242 43.5815 15.0323 44.8367 16.1806 45.8484C17.3289 46.8601 18.6885 47.6028 20.1603 48.0223C21.6321 48.4419 23.1789 48.5277 24.6881 48.2736C26.1972 48.0194 27.6307 47.4317 28.8839 46.5533C30.1371 45.6749 31.1785 44.5279 31.9321 43.1959C32.6858 41.864 33.1327 40.3806 33.2403 38.854C33.3479 37.3274 33.1136 35.796 32.5542 34.3714L45.2742 12C45.8841 10.91 46.1221 9.65085 45.9519 8.41344C45.7818 7.17602 45.2128 6.02782 44.3314 5.14287L40.6628 1.50859C40.1837 1.02885 39.6144 0.648584 38.9877 0.389684C38.3611 0.130783 37.6894 -0.001646 37.0114 1.54412e-05H8.96565Z" fill="#FFAF29"/>
</g>
<defs>
<clipPath id="clip0_16_1042">
<rect width="45.9771" height="48" fill="white"/>
</clipPath>
</defs>
</svg>
