<svg width="40" height="48" viewBox="0 0 40 48" fill="none" xmlns="http://www.w3.org/2000/svg">
<g clip-path="url(#clip0_16_1047)">
<path d="M7.16846 7.50364H32.8508C33.3312 7.50104 33.8073 7.59454 34.2515 7.77872C34.6958 7.9629 35.0995 8.23411 35.4391 8.57665C35.7788 8.91919 36.0477 9.32627 36.2303 9.77431C36.413 10.2224 36.5057 10.7025 36.5031 11.1869V40.5747C36.5057 41.0591 36.413 41.5392 36.2303 41.9872C36.0477 42.4353 35.7788 42.8424 35.4391 43.1849C35.0995 43.5275 34.6958 43.7987 34.2515 43.9828C33.8073 44.167 33.3312 44.2605 32.8508 44.2579H7.16846C6.68739 44.2632 6.21013 44.1715 5.76467 43.9882C5.31921 43.805 4.91452 43.5339 4.57433 43.1908C4.23415 42.8477 3.96532 42.4396 3.78362 41.9904C3.60192 41.5411 3.511 41.0598 3.5162 40.5747V11.1869C3.511 10.7018 3.60192 10.2204 3.78362 9.7712C3.96532 9.32195 4.23415 8.91383 4.57433 8.57075C4.91452 8.22768 5.31921 7.95657 5.76467 7.77333C6.21013 7.59008 6.68739 7.49839 7.16846 7.50364ZM7.16846 3.82037C6.21776 3.82805 5.27791 4.02483 4.40275 4.39944C3.52759 4.77405 2.73433 5.31913 2.06841 6.00344C1.40249 6.68776 0.877001 7.49785 0.522055 8.38733C0.167108 9.2768 -0.0103213 10.2282 -6.79587e-05 11.1869V40.5747C-0.000399667 42.5048 0.750487 44.3581 2.09108 45.7357C3.43166 47.1133 5.25485 47.9053 7.16846 47.9412H32.8508C34.7644 47.9053 36.5876 47.1133 37.9282 45.7357C39.2688 44.3581 40.0197 42.5048 40.0194 40.5747V11.1869C40.0296 10.2282 39.8522 9.2768 39.4972 8.38733C39.1423 7.49785 38.6168 6.68776 37.9509 6.00344C37.285 5.31913 36.4917 4.77405 35.6165 4.39944C34.7414 4.02483 33.8015 3.82805 32.8508 3.82037H7.16846Z" fill="#FFAF29"/>
<path d="M10.8012 0C10.557 0.00724096 10.3168 0.0643564 10.0951 0.167893C9.8734 0.271429 9.67483 0.419235 9.5114 0.602373C9.34796 0.785511 9.22306 1.00017 9.14423 1.23338C9.0654 1.46659 9.0343 1.7135 9.05279 1.95918V11.1869C9.05279 11.6754 9.24519 12.1438 9.58765 12.4892C9.93012 12.8345 10.3946 13.0286 10.8789 13.0286C11.3632 13.0286 11.8277 12.8345 12.1702 12.4892C12.5127 12.1438 12.7051 11.6754 12.7051 11.1869V1.92C12.6951 1.41392 12.4913 0.931367 12.1364 0.573447C11.7815 0.215527 11.303 0.0100242 10.8012 0Z" fill="#FFAF29"/>
<path d="M8.91687 9.26691C8.67706 9.27591 8.44136 9.33246 8.22322 9.43333C8.00508 9.5342 7.80878 9.67742 7.64552 9.8548C7.48226 10.0322 7.35524 10.2402 7.27172 10.4671C7.1882 10.694 7.14981 10.9353 7.15874 11.1771C7.16767 11.419 7.22374 11.6567 7.32376 11.8767C7.42378 12.0966 7.56579 12.2946 7.74168 12.4593C7.91756 12.6239 8.12388 12.752 8.34885 12.8362C8.57383 12.9205 8.81305 12.9592 9.05286 12.9502H12.7051C13.1894 12.9502 13.6539 12.7561 13.9964 12.4108C14.3389 12.0654 14.5312 11.597 14.5312 11.1085C14.5312 10.6201 14.3389 10.1517 13.9964 9.80631C13.6539 9.46094 13.1894 9.26691 12.7051 9.26691H8.91687Z" fill="#FFAF29"/>
<path d="M29.0627 0C28.8185 0.00724096 28.5783 0.0643564 28.3566 0.167893C28.1349 0.271429 27.9363 0.419235 27.7729 0.602373C27.6094 0.785511 27.4845 1.00017 27.4057 1.23338C27.3269 1.46659 27.2958 1.7135 27.3143 1.95918V11.1869C27.3143 11.6754 27.5067 12.1438 27.8491 12.4892C28.1916 12.8345 28.6561 13.0286 29.1404 13.0286C29.6247 13.0286 30.0892 12.8345 30.4317 12.4892C30.7741 12.1438 30.9665 11.6754 30.9665 11.1869V1.92C30.9566 1.41392 30.7528 0.931367 30.3979 0.573447C30.043 0.215527 29.5645 0.0100242 29.0627 0Z" fill="#FFAF29"/>
<path d="M27.1588 9.26691C26.6745 9.28769 26.2182 9.50165 25.8903 9.86172C25.5624 10.2218 25.3897 10.6985 25.4103 11.1869C25.431 11.6753 25.6431 12.1355 26.0002 12.4662C26.3572 12.7969 26.8299 12.971 27.3142 12.9502H30.9664C31.4508 12.9502 31.9152 12.7561 32.2577 12.4108C32.6002 12.0654 32.7926 11.597 32.7926 11.1085C32.7926 10.6201 32.6002 10.1517 32.2577 9.80631C31.9152 9.46094 31.4508 9.26691 30.9664 9.26691H27.0811H27.1588Z" fill="#FFAF29"/>
<path d="M38.2514 16.6335H1.74829V20.3167H38.2514V16.6335Z" fill="#FFAF29"/>
<path d="M19.9709 3.92454e-08C19.4557 3.92454e-08 18.9615 0.206414 18.5972 0.573832C18.2329 0.94125 18.0282 1.43958 18.0282 1.95918V9.26694C18.0282 9.78655 18.2329 10.2849 18.5972 10.6523C18.9615 11.0197 19.4557 11.2261 19.9709 11.2261C20.4861 11.2261 20.9803 11.0197 21.3446 10.6523C21.7089 10.2849 21.9136 9.78655 21.9136 9.26694V1.92C21.9034 1.40721 21.6943 0.918896 21.331 0.55991C20.9678 0.200923 20.4795 -0.000102549 19.9709 3.92454e-08Z" fill="#FFAF29"/>
<path d="M12.7053 17.515C12.19 17.515 11.6959 17.7215 11.3316 18.0889C10.9672 18.4563 10.7626 18.9546 10.7626 19.4742V44.3559C10.7626 44.8443 10.955 45.3127 11.2974 45.6581C11.6399 46.0035 12.1044 46.1975 12.5887 46.1975C13.073 46.1975 13.5375 46.0035 13.88 45.6581C14.2224 45.3127 14.4148 44.8443 14.4148 44.3559V19.435C14.4392 19.1933 14.4132 18.9492 14.3385 18.7182C14.2638 18.4872 14.1421 18.2745 13.9812 18.0937C13.8202 17.9129 13.6236 17.7681 13.4038 17.6684C13.1841 17.5688 12.9462 17.5165 12.7053 17.515Z" fill="#FFAF29"/>
<path d="M19.8543 25.9592C19.5902 25.9207 19.3209 25.9411 19.0654 26.0188C18.8099 26.0966 18.5744 26.2299 18.3755 26.4094C18.1766 26.5888 18.0191 26.8101 17.9142 27.0575C17.8092 27.305 17.7593 27.5726 17.7679 27.8416C17.7766 28.1106 17.8436 28.3744 17.9642 28.6145C18.0849 28.8546 18.2563 29.065 18.4663 29.2311C18.6763 29.3972 18.9198 29.5148 19.1798 29.5757C19.4397 29.6367 19.7098 29.6394 19.9709 29.5837H21.9136C22.3347 29.5069 22.7157 29.2834 22.9901 28.9522C23.2645 28.6209 23.4148 28.2031 23.4148 27.7715C23.4148 27.3399 23.2645 26.922 22.9901 26.5908C22.7157 26.2595 22.3347 26.036 21.9136 25.9592H19.8543Z" fill="#FFAF29"/>
<path d="M28.9074 25.9592C26.5761 25.9592 26.7316 29.6228 29.1988 29.6228H30.9666C31.2209 29.6494 31.478 29.6218 31.721 29.5418C31.9641 29.4619 32.1878 29.3313 32.3777 29.1587C32.5676 28.986 32.7194 28.775 32.8233 28.5394C32.9272 28.3038 32.9809 28.0488 32.9809 27.791C32.9809 27.5332 32.9272 27.2782 32.8233 27.0426C32.7194 26.807 32.5676 26.596 32.3777 26.4233C32.1878 26.2507 31.9641 26.1201 31.721 26.0402C31.478 25.9602 31.2209 25.9326 30.9666 25.9592H28.9074Z" fill="#FFAF29"/>
<path d="M19.9709 35.0498C19.4866 35.0498 19.0221 35.2438 18.6796 35.5892C18.3372 35.9346 18.1448 36.403 18.1448 36.8914C18.1448 37.3799 18.3372 37.8483 18.6796 38.1937C19.0221 38.539 19.4866 38.7331 19.9709 38.7331H21.9136C22.3979 38.7331 22.8624 38.539 23.2049 38.1937C23.5473 37.8483 23.7397 37.3799 23.7397 36.8914C23.7397 36.403 23.5473 35.9346 23.2049 35.5892C22.8624 35.2438 22.3979 35.0498 21.9136 35.0498H19.9709Z" fill="#FFAF29"/>
<path d="M29.1987 35.0498C28.7144 35.0498 28.2499 35.2438 27.9074 35.5892C27.565 35.9346 27.3726 36.403 27.3726 36.8914C27.3726 37.3799 27.565 37.8483 27.9074 38.1937C28.2499 38.539 28.7144 38.7331 29.1987 38.7331H30.9665C31.4509 38.7331 31.9153 38.539 32.2578 38.1937C32.6003 37.8483 32.7927 37.3799 32.7927 36.8914C32.7927 36.403 32.6003 35.9346 32.2578 35.5892C31.9153 35.2438 31.4509 35.0498 30.9665 35.0498H29.1987Z" fill="#FFAF29"/>
<path d="M18.0282 9.26691C15.697 9.42364 15.833 13.1853 18.1642 12.9502H22.0496C22.5339 12.9502 22.9984 12.7561 23.3409 12.4108C23.6833 12.0654 23.8757 11.597 23.8757 11.1085C23.8757 10.6201 23.6833 10.1517 23.3409 9.80631C22.9984 9.46094 22.5339 9.26691 22.0496 9.26691H18.0282Z" fill="#FFAF29"/>
</g>
<defs>
<clipPath id="clip0_16_1047">
<rect width="40" height="48" fill="white"/>
</clipPath>
</defs>
</svg>
