<svg width="25" height="25" viewBox="0 0 25 25" fill="none" xmlns="http://www.w3.org/2000/svg">
<g id="copyright_svgrepo.com" clip-path="url(#clip0_73_42)">
<path id="Vector" d="M14.5834 16.3202C14.0365 16.5431 13.4325 16.6668 12.7976 16.6668C10.3321 16.6668 8.33337 14.8013 8.33337 12.5002C8.33337 10.199 10.3321 8.3335 12.7976 8.3335C13.4325 8.3335 14.0365 8.4572 14.5834 8.68019" stroke="#F1F1F1" stroke-width="3.75" stroke-linecap="round"/>
<path id="Vector_2" d="M7.29171 3.47706C8.82386 2.59076 10.6027 2.0835 12.5 2.0835C18.253 2.0835 22.9167 6.74719 22.9167 12.5002C22.9167 18.2531 18.253 22.9168 12.5 22.9168C6.74707 22.9168 2.08337 18.2531 2.08337 12.5002C2.08337 10.6029 2.59063 8.82399 3.47694 7.29183" stroke="#F1F1F1" stroke-width="3.75" stroke-linecap="round"/>
</g>
<defs>
<clipPath id="clip0_73_42">
<rect width="25" height="25" fill="white"/>
</clipPath>
</defs>
</svg>
