<svg width="70" height="64" viewBox="0 0 70 64" fill="none" xmlns="http://www.w3.org/2000/svg">
<g id="Desktop" clip-path="url(#clip0_16_1001)">
<rect width="69.3192" height="64" fill="none"/>
<path id="Vector" d="M15.9859 5.31919H53.3333C54.7362 5.31168 56.1266 5.58246 57.4241 6.11586C58.7217 6.64925 59.9005 7.43467 60.8925 8.42665C61.8845 9.41864 62.6699 10.5975 63.2033 11.895C63.7367 13.1926 64.0075 14.583 64 15.9859V48.0141C64.0075 49.417 63.7367 50.8074 63.2033 52.105C62.6699 53.4025 61.8845 54.5814 60.8925 55.5733C59.9005 56.5653 58.7217 57.3507 57.4241 57.8841C56.1266 58.4175 54.7362 58.6883 53.3333 58.6808H15.9859C14.583 58.6883 13.1926 58.4175 11.895 57.8841C10.5975 57.3507 9.41864 56.5653 8.42665 55.5733C7.43467 54.5814 6.64925 53.4025 6.11586 52.105C5.58246 50.8074 5.31168 49.417 5.31919 48.0141V15.9859C5.31168 14.583 5.58246 13.1926 6.11586 11.895C6.64925 10.5975 7.43467 9.41864 8.42665 8.42665C9.41864 7.43467 10.5975 6.64925 11.895 6.11586C13.1926 5.58246 14.583 5.31168 15.9859 5.31919ZM15.9859 0C11.7484 0.00748001 7.68672 1.6941 4.69041 4.69041C1.6941 7.68672 0.00748001 11.7484 0 15.9859V48.0141C0.00748001 52.2516 1.6941 56.3133 4.69041 59.3096C7.68672 62.3059 11.7484 63.9925 15.9859 64H53.3333C57.5707 63.9925 61.6325 62.3059 64.6288 59.3096C67.6251 56.3133 69.3117 52.2516 69.3192 48.0141V15.9859C69.3117 11.7484 67.6251 7.68672 64.6288 4.69041C61.6325 1.6941 57.5707 0.00748001 53.3333 0H15.9859Z" fill="#FFAF29"/>
<path id="Vector_2" d="M2.65957 15.9858C2.10363 16.1783 1.62149 16.5392 1.28024 17.0184C0.938997 17.4976 0.755615 18.0713 0.755615 18.6596C0.755615 19.2479 0.938997 19.8215 1.28024 20.3008C1.62149 20.78 2.10363 21.1409 2.65957 21.3333H66.6596C67.2155 21.1409 67.6976 20.78 68.0389 20.3008C68.3801 19.8215 68.5635 19.2479 68.5635 18.6596C68.5635 18.0713 68.3801 17.4976 68.0389 17.0184C67.6976 16.5392 67.2155 16.1783 66.6596 15.9858H2.65957Z" fill="#FFAF29"/>
<path id="Vector_3" d="M53.0504 8.00708C52.5027 8.22712 52.0375 8.61294 51.72 9.11053C51.4025 9.60812 51.2485 10.1926 51.2797 10.782C51.3109 11.3714 51.5257 11.9364 51.8939 12.3977C52.2622 12.859 52.7655 13.1936 53.3333 13.3546H55.9929C56.6546 13.2864 57.2675 12.9753 57.7131 12.4814C58.1588 11.9876 58.4054 11.346 58.4054 10.6808C58.4054 10.0156 58.1588 9.37407 57.7131 8.8802C57.2675 8.38633 56.6546 8.07524 55.9929 8.00708H53.1636H53.0504Z" fill="#FFAF29"/>
<path id="Vector_4" d="M39.7243 8.00708C39.176 8.22451 38.7093 8.60789 38.3896 9.10361C38.0698 9.59932 37.913 10.1826 37.9411 10.7718C37.9691 11.361 38.1806 11.9267 38.546 12.3898C38.9114 12.8529 39.4124 13.1902 39.979 13.3546H42.6669C43.3286 13.2864 43.9415 12.9753 44.3871 12.4814C44.8327 11.9876 45.0793 11.346 45.0793 10.6808C45.0793 10.0156 44.8327 9.37407 44.3871 8.8802C43.9415 8.38633 43.3286 8.07524 42.6669 8.00708H39.8375H39.7243Z" fill="#FFAF29"/>
<path id="Vector_5" d="M26.6245 15.9575C25.9089 16.0077 25.2391 16.3278 24.7506 16.8531C24.2621 17.3784 23.9914 18.0696 23.9932 18.7869V61.3121C23.9546 61.6863 23.995 62.0645 24.1119 62.4221C24.2287 62.7797 24.4193 63.1088 24.6713 63.3881C24.9233 63.6674 25.2311 63.8907 25.5749 64.0436C25.9187 64.1964 26.2907 64.2754 26.6669 64.2754C27.0431 64.2754 27.4151 64.1964 27.7589 64.0436C28.1026 63.8907 28.4105 63.6674 28.6625 63.3881C28.9145 63.1088 29.1051 62.7797 29.2219 62.4221C29.3387 62.0645 29.3792 61.6863 29.3406 61.3121V18.6737C29.3127 17.9623 29.0176 17.2875 28.5141 16.784C28.0107 16.2806 27.3359 15.9855 26.6245 15.9575Z" fill="#FFAF29"/>
<path id="Vector_6" d="M26.3977 37.3474C26.0485 37.3642 25.7059 37.4495 25.3897 37.5986C25.0734 37.7477 24.7896 37.9577 24.5544 38.2164C24.3193 38.4752 24.1374 38.7778 24.0192 39.1069C23.901 39.436 23.8488 39.7851 23.8655 40.1344C23.8822 40.4836 23.9675 40.8262 24.1166 41.1424C24.2657 41.4587 24.4757 41.7425 24.7345 41.9777C24.9933 42.2128 25.2958 42.3947 25.6249 42.5129C25.954 42.6311 26.3031 42.6833 26.6524 42.6666H66.6595C67.3648 42.6666 68.0413 42.3864 68.5401 41.8876C69.0388 41.3889 69.319 40.7124 69.319 40.007C69.319 39.3017 69.0388 38.6252 68.5401 38.1264C68.0413 37.6276 67.3648 37.3474 66.6595 37.3474H26.6524C26.5698 37.3194 26.4803 37.3194 26.3977 37.3474Z" fill="#FFAF29"/>
<path id="Vector_7" d="M46.6279 15.9575C45.9123 16.0077 45.2426 16.3278 44.7541 16.8531C44.2656 17.3784 43.9948 18.0696 43.9966 18.7869V40.0919C43.9966 40.801 44.2783 41.4811 44.7797 41.9825C45.2811 42.484 45.9612 42.7657 46.6703 42.7657C47.3795 42.7657 48.0595 42.484 48.5609 41.9825C49.0624 41.4811 49.3441 40.801 49.3441 40.0919V18.6737C49.3161 17.9623 49.021 17.2875 48.5175 16.784C48.0141 16.2806 47.3393 15.9855 46.6279 15.9575Z" fill="#FFAF29"/>
<path id="Vector_8" d="M13.3264 26.6525C12.6647 26.7206 12.0518 27.0317 11.6062 27.5256C11.1606 28.0195 10.9139 28.661 10.9139 29.3262C10.9139 29.9914 11.1606 30.633 11.6062 31.1268C12.0518 31.6207 12.6647 31.9318 13.3264 31.9999H15.986C16.542 31.8075 17.0241 31.4466 17.3653 30.9674C17.7066 30.4882 17.89 29.9145 17.89 29.3262C17.89 28.7379 17.7066 28.1642 17.3653 27.685C17.0241 27.2058 16.542 26.8449 15.986 26.6525H13.3264Z" fill="#FFAF29"/>
<path id="Vector_9" d="M13.0716 37.3474C12.7223 37.3642 12.3798 37.4495 12.0635 37.5986C11.7472 37.7477 11.4634 37.9577 11.2282 38.2164C10.9931 38.4752 10.8112 38.7778 10.693 39.1069C10.5748 39.436 10.5226 39.7851 10.5393 40.1344C10.556 40.4836 10.6414 40.8262 10.7905 41.1424C10.9396 41.4587 11.1495 41.7425 11.4083 41.9777C11.6671 42.2128 11.9697 42.3947 12.2987 42.5129C12.6278 42.6311 12.977 42.6833 13.3262 42.6666H15.9858C16.6912 42.6666 17.3677 42.3864 17.8664 41.8876C18.3652 41.3889 18.6454 40.7124 18.6454 40.007C18.6454 39.3017 18.3652 38.6252 17.8664 38.1264C17.3677 37.6276 16.6912 37.3474 15.9858 37.3474H13.3262C13.2436 37.3194 13.1541 37.3194 13.0716 37.3474Z" fill="#FFAF29"/>
<path id="Vector_10" d="M13.0716 48.0142C12.3662 48.048 11.7031 48.3605 11.2283 48.8832C10.7534 49.4058 10.5055 50.0957 10.5393 50.8011C10.5731 51.5065 10.8857 52.1695 11.4083 52.6444C11.931 53.1193 12.6209 53.3671 13.3262 53.3334H15.9858C16.6912 53.3334 17.3677 53.0532 17.8664 52.5544C18.3652 52.0556 18.6454 51.3791 18.6454 50.6738C18.6454 49.9684 18.3652 49.2919 17.8664 48.7932C17.3677 48.2944 16.6912 48.0142 15.9858 48.0142H13.3262C13.2437 47.9862 13.1541 47.9862 13.0716 48.0142Z" fill="#FFAF29"/>
<path id="Vector_11" d="M13.0715 8.00708C12.5232 8.22451 12.0565 8.60789 11.7367 9.10361C11.417 9.59932 11.2602 10.1826 11.2882 10.7718C11.3163 11.361 11.5278 11.9267 11.8932 12.3898C12.2586 12.8529 12.7596 13.1902 13.3262 13.3546H15.9857C16.6474 13.2864 17.2603 12.9753 17.706 12.4814C18.1516 11.9876 18.3982 11.346 18.3982 10.6808C18.3982 10.0156 18.1516 9.37407 17.706 8.8802C17.2603 8.38633 16.6474 8.07524 15.9857 8.00708H13.1564H13.0715Z" fill="#FFAF29"/>
</g>
<defs>
<clipPath id="clip0_16_1001">
<rect width="69.3192" height="64" fill="white"/>
</clipPath>
</defs>
</svg>
