<svg width="44" height="64" viewBox="0 0 44 64" fill="#FFAF29" xmlns="http://www.w3.org/2000/svg">
<g id="Mobile" clip-path="url(#clip0_16_1017)">
<path id="Vector" d="M14.6494 4.91102H29.3247C30.6103 4.90409 31.8845 5.1541 33.0735 5.64656C34.2626 6.13902 35.3429 6.86417 36.2519 7.78004C37.161 8.69591 37.8807 9.78431 38.3695 10.9823C38.8583 12.1802 39.1065 13.464 39.0996 14.7592V49.2408C39.1065 50.536 38.8583 51.8198 38.3695 53.0177C37.8807 54.2157 37.161 55.3041 36.2519 56.22C35.3429 57.1358 34.2626 57.861 33.0735 58.3534C31.8845 58.8459 30.6103 59.0959 29.3247 59.089H14.6494C13.3638 59.0959 12.0896 58.8459 10.9006 58.3534C9.71152 57.861 8.63121 57.1358 7.72216 56.22C6.8131 55.3041 6.09335 54.2157 5.60455 53.0177C5.11575 51.8198 4.86761 50.536 4.87448 49.2408V14.7592C4.86761 13.464 5.11575 12.1802 5.60455 10.9823C6.09335 9.78431 6.8131 8.69591 7.72216 7.78004C8.63121 6.86417 9.71152 6.13902 10.9006 5.64656C12.0896 5.1541 13.3638 4.90409 14.6494 4.91102ZM14.6494 0C10.7662 0.00690603 7.04408 1.5641 4.29828 4.33049C1.55247 7.09688 0.00685465 10.8469 0 14.7592V49.2408C0.00685465 53.1531 1.55247 56.9031 4.29828 59.6695C7.04408 62.4359 10.7662 63.9931 14.6494 64H29.3247C33.2078 63.9931 36.93 62.4359 39.6758 59.6695C42.4216 56.9031 43.9672 53.1531 43.9741 49.2408V14.7592C43.9672 10.8469 42.4216 7.09688 39.6758 4.33049C36.93 1.5641 33.2078 0.00690603 29.3247 0H14.6494Z" fill="#FFAF29"/>
<path id="Vector_2" d="M29.3249 9.84814C29.0049 9.84814 28.6879 9.91166 28.3922 10.0351C28.0965 10.1585 27.8279 10.3393 27.6015 10.5673C27.3752 10.7954 27.1957 11.0661 27.0732 11.364C26.9507 11.6619 26.8877 11.9812 26.8877 12.3037C26.8877 12.6261 26.9507 12.9454 27.0732 13.2433C27.1957 13.5413 27.3752 13.8119 27.6015 14.04C27.8279 14.268 28.0965 14.4488 28.3922 14.5723C28.6879 14.6957 29.0049 14.7592 29.3249 14.7592H31.7622C32.4086 14.7592 33.0285 14.5005 33.4856 14.04C33.9426 13.5795 34.1994 12.9549 34.1994 12.3037C34.1994 11.6524 33.9426 11.0278 33.4856 10.5673C33.0285 10.1068 32.4086 9.84814 31.7622 9.84814H29.3249Z" fill="#FFAF29"/>
<path id="Vector_3" d="M4.64135 49.2408C4.32129 49.2563 4.00738 49.3351 3.71754 49.4727C3.4277 49.6104 3.16762 49.8042 2.95213 50.0432C2.73665 50.2821 2.56999 50.5614 2.46166 50.8653C2.35333 51.1691 2.30546 51.4914 2.32078 51.8139C2.33611 52.1364 2.41432 52.4526 2.55096 52.7446C2.6876 53.0366 2.87999 53.2987 3.11714 53.5158C3.35429 53.7329 3.63157 53.9008 3.93313 54.0099C4.23469 54.1191 4.55464 54.1673 4.8747 54.1519H39.0998C39.7462 54.1519 40.3661 53.8932 40.8232 53.4327C41.2803 52.9722 41.5371 52.3476 41.5371 51.6964C41.5371 51.0451 41.2803 50.4205 40.8232 49.96C40.3661 49.4996 39.7462 49.2408 39.0998 49.2408H4.64135Z" fill="#FFAF29"/>
<path id="Vector_4" d="M12.2121 9.84814C11.5657 9.84814 10.9458 10.1068 10.4888 10.5673C10.0317 11.0278 9.7749 11.6524 9.7749 12.3037C9.7749 12.9549 10.0317 13.5795 10.4888 14.04C10.9458 14.5005 11.5657 14.7592 12.2121 14.7592H19.5498C20.1962 14.7592 20.8161 14.5005 21.2732 14.04C21.7303 13.5795 21.987 12.9549 21.987 12.3037C21.987 11.6524 21.7303 11.0278 21.2732 10.5673C20.8161 10.1068 20.1962 9.84814 19.5498 9.84814H12.2121Z" fill="#FFAF29"/>
</g>
<defs>
<clipPath id="clip0_16_1017">
<rect width="44" height="64" fill="white"/>
</clipPath>
</defs>
</svg>
