<svg width="46" height="48" viewBox="0 0 46 48" fill="none" xmlns="http://www.w3.org/2000/svg">
<g clip-path="url(#clip0_16_1065)">
<path d="M9.1335 25.8416H25.7968C26.517 25.8283 27.2325 25.9606 27.9005 26.2306C28.5686 26.5006 29.1754 26.9028 29.6847 27.413C30.1941 27.9233 30.5955 28.5311 30.8651 29.2003C31.1346 29.8695 31.2667 30.5863 31.2534 31.3077V38.6939C31.2716 39.4241 31.1441 40.1506 30.8783 40.8307C30.6125 41.5109 30.2138 42.1311 29.7055 42.6548C29.1973 43.1786 28.5897 43.5953 27.9185 43.8807C27.2473 44.1661 26.5259 44.3143 25.7968 44.3167H9.1335C8.40511 44.3117 7.68498 44.1617 7.01498 43.8754C6.34498 43.5891 5.73848 43.1722 5.23075 42.649C4.72301 42.1258 4.32417 41.5067 4.05741 40.8277C3.79066 40.1487 3.6613 39.4234 3.67687 38.6939V31.3077C3.6636 30.5863 3.79568 29.8695 4.0652 29.2003C4.33473 28.5311 4.73617 27.9233 5.24553 27.413C5.75489 26.9028 6.36172 26.5006 7.02975 26.2306C7.69777 25.9606 8.41328 25.8283 9.1335 25.8416ZM9.1335 21.9232C6.69848 21.9694 4.37846 22.9695 2.67101 24.7093C0.963571 26.449 0.00468123 28.7897 0 31.2294V38.6939C0.00468123 41.1336 0.963571 43.4743 2.67101 45.214C4.37846 46.9537 6.69848 47.9539 9.1335 48H25.7968C28.2318 47.9539 30.5518 46.9537 32.2593 45.214C33.9667 43.4743 34.9256 41.1336 34.9303 38.6939V31.3077C34.9154 28.8748 33.952 26.5441 32.2456 24.8128C30.5393 23.0815 28.2251 22.0868 25.7968 22.0408L9.1335 21.9232Z" fill="#FFAF29"/>
<path d="M11.0697 29.3877C10.5782 29.4608 10.1172 29.6713 9.73977 29.9951L6.04334 33.6783C5.8665 33.85 5.72589 34.0556 5.62987 34.2827C5.53385 34.5099 5.48438 34.7541 5.48438 35.0008C5.48437 35.2475 5.53385 35.4917 5.62987 35.7188C5.72589 35.946 5.8665 36.1515 6.04334 36.3232L9.73977 40.0261C9.88551 40.2942 10.0918 40.5244 10.3421 40.6985C10.5924 40.8725 10.8799 40.9856 11.1815 41.0286C11.4832 41.0717 11.7907 41.0435 12.0796 40.9464C12.3685 40.8493 12.6307 40.6859 12.8454 40.4693C13.06 40.2526 13.2212 39.9887 13.316 39.6986C13.4108 39.4086 13.4367 39.1003 13.3915 38.7984C13.3463 38.4966 13.2313 38.2094 13.0557 37.96C12.8801 37.7105 12.6487 37.5056 12.3801 37.3616L9.87668 35.0106L12.3801 32.64C12.6212 32.3673 12.7817 32.0326 12.8435 31.6736C12.9052 31.3146 12.8658 30.9454 12.7297 30.6076C12.5936 30.2697 12.3662 29.9766 12.0729 29.7611C11.7797 29.5457 11.4323 29.4163 11.0697 29.3877Z" fill="#FFAF29"/>
<path d="M23.8801 29.3877C23.5159 29.413 23.166 29.5399 22.87 29.7541C22.5741 29.9683 22.3439 30.2611 22.2055 30.5996C22.0671 30.938 22.026 31.3085 22.0869 31.6691C22.1479 32.0297 22.3083 32.366 22.5501 32.64L25.0731 35.0106L22.5501 37.3616C20.9268 39.1445 23.4498 41.7894 25.21 40.0261L28.8673 36.3232C29.1972 35.9621 29.3801 35.4903 29.3801 35.0008C29.3801 34.5113 29.1972 34.0395 28.8673 33.6783L25.1709 29.9951C25.0077 29.8119 24.8092 29.6638 24.5874 29.5594C24.3656 29.455 24.125 29.3966 23.8801 29.3877Z" fill="#FFAF29"/>
<path d="M16.5068 0C14.0843 0.00515236 11.7621 0.970136 10.0472 2.6843C8.33237 4.39847 7.3641 6.72261 7.35377 9.14939V24C7.25722 24.2943 7.2317 24.6072 7.27929 24.9133C7.32688 25.2194 7.44623 25.5097 7.62755 25.7606C7.80887 26.0115 8.04699 26.2158 8.32237 26.3566C8.59776 26.4975 8.90256 26.5709 9.21176 26.5709C9.52097 26.5709 9.82577 26.4975 10.1012 26.3566C10.3765 26.2158 10.6147 26.0115 10.796 25.7606C10.9773 25.5097 11.0967 25.2194 11.1442 24.9133C11.1918 24.6072 11.1663 24.2943 11.0698 24V9.14939C11.0515 8.42175 11.1785 7.6978 11.4434 7.02C11.7082 6.34221 12.1055 5.72422 12.6119 5.20229C13.1184 4.68037 13.7238 4.26502 14.3926 3.98062C15.0614 3.69622 15.7802 3.5485 16.5068 3.54612H36.8665C37.594 3.54856 38.3137 3.69617 38.9836 3.98033C39.6535 4.2645 40.2602 4.67953 40.7681 5.20117C41.2761 5.72282 41.6753 6.34063 41.9423 7.01852C42.2093 7.69642 42.3387 8.42081 42.3232 9.14939V31.3078C42.3414 32.038 42.2139 32.7645 41.9481 33.4446C41.6823 34.1248 41.2835 34.745 40.7753 35.2687C40.267 35.7924 39.6595 36.2092 38.9882 36.4946C38.317 36.78 37.5957 36.9282 36.8665 36.9306H33.1701C32.6825 36.9306 32.2149 37.1246 31.8701 37.47C31.5254 37.8154 31.3317 38.2838 31.3317 38.7722C31.3317 39.2607 31.5254 39.7291 31.8701 40.0745C32.2149 40.4198 32.6825 40.6139 33.1701 40.6139H36.8665C39.3015 40.5678 41.6216 39.5676 43.329 37.8279C45.0364 36.0882 45.9953 33.7474 46 31.3078V9.14939C45.9897 6.726 45.0241 4.4048 43.3135 2.69119C41.6029 0.977574 39.2857 0.0103124 36.8665 0H16.5068Z" fill="#FFAF29"/>
<path d="M16.5068 7.24899C16.0192 7.24899 15.5516 7.44302 15.2068 7.7884C14.862 8.13377 14.6683 8.6022 14.6683 9.09063C14.6683 9.57906 14.862 10.0475 15.2068 10.3929C15.5516 10.7382 16.0192 10.9323 16.5068 10.9323H18.4626C18.9501 10.9323 19.4178 10.7382 19.7625 10.3929C20.1073 10.0475 20.301 9.57906 20.301 9.09063C20.301 8.6022 20.1073 8.13377 19.7625 7.7884C19.4178 7.44302 18.9501 7.24899 18.4626 7.24899H16.5068Z" fill="#FFAF29"/>
<path d="M25.7968 7.24899C25.5554 7.24899 25.3163 7.29663 25.0933 7.38918C24.8702 7.48173 24.6676 7.61738 24.4968 7.78839C24.3261 7.95941 24.1907 8.16243 24.0983 8.38586C24.0059 8.6093 23.9584 8.84878 23.9584 9.09063C23.9584 9.33247 24.0059 9.57195 24.0983 9.79539C24.1907 10.0188 24.3261 10.2218 24.4968 10.3929C24.6676 10.5639 24.8702 10.6995 25.0933 10.7921C25.3163 10.8846 25.5554 10.9323 25.7968 10.9323H36.8665C37.3541 10.9323 37.8217 10.7382 38.1665 10.3929C38.5113 10.0475 38.705 9.57906 38.705 9.09063C38.705 8.6022 38.5113 8.13377 38.1665 7.7884C37.8217 7.44302 37.3541 7.24899 36.8665 7.24899H25.7968Z" fill="#FFAF29"/>
<path d="M34.9302 14.6351C34.4427 14.6351 33.975 14.8291 33.6303 15.1745C33.2855 15.5198 33.0918 15.9883 33.0918 16.4767C33.0918 16.9651 33.2855 17.4336 33.6303 17.7789C33.975 18.1243 34.4427 18.3183 34.9302 18.3183H36.886C37.3736 18.3183 37.8412 18.1243 38.186 17.7789C38.5308 17.4336 38.7244 16.9651 38.7244 16.4767C38.7244 15.9883 38.5308 15.5198 38.186 15.1745C37.8412 14.8291 37.3736 14.6351 36.886 14.6351H34.9302Z" fill="#FFAF29"/>
<path d="M20.2032 14.6351C19.7156 14.6351 19.248 14.8291 18.9032 15.1745C18.5584 15.5198 18.3647 15.9883 18.3647 16.4767C18.3647 16.9651 18.5584 17.4336 18.9032 17.7789C19.248 18.1243 19.7156 18.3183 20.2032 18.3183H27.5765C27.8179 18.3183 28.057 18.2707 28.28 18.1782C28.5031 18.0856 28.7057 17.9499 28.8765 17.7789C29.0472 17.6079 29.1826 17.4049 29.275 17.1815C29.3674 16.958 29.4149 16.7185 29.4149 16.4767C29.4149 16.2349 29.3674 15.9954 29.275 15.7719C29.1826 15.5485 29.0472 15.3455 28.8765 15.1745C28.7057 15.0035 28.5031 14.8678 28.28 14.7753C28.057 14.6827 27.8179 14.6351 27.5765 14.6351H20.2032Z" fill="#FFAF29"/>
<path d="M18.2866 29.3877C17.9007 29.4427 17.5399 29.612 17.2507 29.8738C16.9614 30.1356 16.7569 30.478 16.6633 30.8571L14.7075 38.2432C14.6152 38.4859 14.5752 38.7454 14.5901 39.0047C14.6049 39.264 14.6744 39.5172 14.7939 39.7477C14.9133 39.9782 15.0801 40.1808 15.2833 40.3421C15.4864 40.5035 15.7214 40.6199 15.9726 40.6839C16.2239 40.7479 16.4859 40.7579 16.7413 40.7133C16.9967 40.6687 17.2398 40.5705 17.4546 40.4251C17.6694 40.2797 17.8511 40.0904 17.9878 39.8697C18.1244 39.649 18.213 39.4019 18.2475 39.1445L20.2033 31.7583C20.2646 31.4723 20.2612 31.1761 20.1933 30.8915C20.1254 30.6069 19.9948 30.3412 19.8109 30.1138C19.6271 29.8865 19.3948 29.7032 19.131 29.5776C18.8672 29.4519 18.5787 29.3871 18.2866 29.3877Z" fill="#FFAF29"/>
</g>
<defs>
<clipPath id="clip0_16_1065">
<rect width="46" height="48" fill="white"/>
</clipPath>
</defs>
</svg>
