<svg width="52" height="48" viewBox="0 0 52 48" fill="none" xmlns="http://www.w3.org/2000/svg">
<g clip-path="url(#clip0_16_1077)">
<path d="M13.5568 30.843C13.1303 30.9029 12.7416 31.12 12.4669 31.4517C12.1922 31.7834 12.0513 32.2058 12.072 32.636C12.0928 33.0662 12.2735 33.4732 12.5788 33.777C12.8841 34.0808 13.2919 34.2595 13.7222 34.2782H39.4397C39.8646 34.2342 40.2581 34.0342 40.5442 33.717C40.8303 33.3998 40.9886 32.9878 40.9886 32.5606C40.9886 32.1334 40.8303 31.7214 40.5442 31.4042C40.2581 31.087 39.8646 30.887 39.4397 30.843H13.5568ZM6.85189 23.9911C6.5096 23.9912 6.17503 24.0929 5.89068 24.2835C5.60633 24.474 5.38504 24.7448 5.2549 25.0614C5.12477 25.378 5.09166 25.7261 5.15979 26.0616C5.22792 26.397 5.39421 26.7047 5.63754 26.9454C5.88087 27.1861 6.19027 27.3491 6.52642 27.4137C6.86258 27.4782 7.21034 27.4414 7.52552 27.3079C7.84071 27.1744 8.1091 26.9502 8.29661 26.6638C8.48412 26.3774 8.58229 26.0418 8.57865 25.6995C8.57866 25.4736 8.53387 25.25 8.44687 25.0415C8.35987 24.833 8.23238 24.6438 8.0718 24.485C7.91121 24.3261 7.7207 24.2006 7.51131 24.1159C7.30191 24.0311 7.07778 23.9887 6.85189 23.9911ZM25.5522 23.9911C25.3124 23.9808 25.0731 24.0205 24.8495 24.1078C24.6259 24.1951 24.423 24.3281 24.2536 24.4982C24.0843 24.6684 23.9523 24.872 23.8661 25.096C23.7799 25.32 23.7413 25.5595 23.7528 25.7993C23.7644 26.039 23.8258 26.2738 23.9331 26.4885C24.0405 26.7032 24.1914 26.8931 24.3763 27.0462C24.5611 27.1993 24.7759 27.3122 25.0069 27.3776C25.2378 27.4431 25.4799 27.4596 25.7176 27.4263H29.9977C30.4226 27.3823 30.8161 27.1823 31.1022 26.8651C31.3883 26.5479 31.5466 26.1359 31.5466 25.7087C31.5466 25.2815 31.3883 24.8695 31.1022 24.5523C30.8161 24.2351 30.4226 24.0351 29.9977 23.9911H25.5522ZM13.5568 23.9911C13.317 23.9808 13.0777 24.0205 12.8541 24.1078C12.6305 24.1951 12.4276 24.3281 12.2582 24.4982C12.0889 24.6684 11.9569 24.872 11.8707 25.096C11.7845 25.32 11.7459 25.5595 11.7574 25.7993C11.769 26.039 11.8304 26.2738 11.9377 26.4885C12.0451 26.7032 12.196 26.8931 12.3809 27.0462C12.5657 27.1993 12.7805 27.3122 13.0115 27.3776C13.2424 27.4431 13.4845 27.4596 13.7222 27.4263H18.8657C19.2906 27.3823 19.6841 27.1823 19.9701 26.8651C20.2562 26.5479 20.4146 26.1359 20.4146 25.7087C20.4146 25.2815 20.2562 24.8695 19.9701 24.5523C19.6841 24.2351 19.2906 24.0351 18.8657 23.9911H13.5568ZM5.14351 22.2644H46.2916C46.5182 22.2619 46.743 22.305 46.9526 22.3911C47.1622 22.4772 47.3524 22.6046 47.5118 22.7657C47.6712 22.9268 47.7965 23.1183 47.8804 23.3288C47.9643 23.5393 48.0049 23.7646 48 23.9911V35.9865C48.0049 36.2131 47.9643 36.4383 47.8804 36.6489C47.7965 36.8594 47.6712 37.0509 47.5118 37.212C47.3524 37.3731 47.1622 37.5005 46.9526 37.5866C46.743 37.6727 46.5182 37.7158 46.2916 37.7133H17.7084C17.3008 37.5841 16.8596 37.6124 16.4719 37.7927C16.0842 37.9729 15.7781 38.292 15.6142 38.6869L13.7222 42.3608L11.8117 38.6869C11.6512 38.3852 11.4097 38.1342 11.1144 37.9622C10.8191 37.7902 10.4817 37.704 10.1401 37.7133H9.95637H5.14351C4.91691 37.7158 4.69212 37.6727 4.4825 37.5866C4.27289 37.5005 4.08273 37.3731 3.92335 37.212C3.76397 37.0509 3.63861 36.8594 3.55474 36.6489C3.47087 36.4383 3.43019 36.2131 3.43513 35.9865V23.9911C3.43019 23.7646 3.47087 23.5393 3.55474 23.3288C3.63861 23.1183 3.76397 22.9268 3.92335 22.7657C4.08273 22.6046 4.27289 22.4772 4.4825 22.3911C4.69212 22.305 4.91691 22.2619 5.14351 22.2644ZM5.14351 18.8476C3.78234 18.8572 2.47965 19.4022 1.51713 20.3648C0.554613 21.3273 0.00961995 22.63 0 23.9911V35.9865C0.00480394 37.3509 0.547671 38.6583 1.51071 39.6248C2.47374 40.5912 3.77918 41.1388 5.14351 41.1484H9.18484L12.1424 47.0451C12.2878 47.3264 12.5078 47.5623 12.7784 47.727C13.0489 47.8917 13.3595 47.9788 13.6762 47.9788C13.9929 47.9788 14.3036 47.8917 14.5741 47.727C14.8446 47.5623 15.0646 47.3264 15.2101 47.0451L18.1676 41.1484H46.2916C47.6575 41.1436 48.9657 40.5976 49.9298 39.6301C50.8938 38.6626 51.4351 37.3524 51.4351 35.9865V23.9911C51.4303 22.6316 50.8894 21.3289 49.9298 20.3659C48.9702 19.4029 47.6695 18.8573 46.31 18.8476H5.14351ZM43.4076 5.62145L43.8117 6.44808C43.9344 6.70016 44.1178 6.91777 44.3455 7.08132C44.5731 7.24486 44.8379 7.3492 45.116 7.38494L46.0344 7.53189L45.3548 8.17483C45.1578 8.36802 45.0099 8.6056 44.9236 8.86768C44.8373 9.12976 44.8151 9.40871 44.8588 9.68115L45.0057 10.5996L44.1975 10.1771C43.9483 10.0567 43.6751 9.99422 43.3984 9.99422C43.1217 9.99422 42.8485 10.0567 42.5993 10.1771L41.791 10.618L41.938 9.69952C41.9783 9.42582 41.9563 9.14654 41.8736 8.88253C41.7909 8.61852 41.6497 8.3766 41.4604 8.17483L40.7807 7.45841L41.6992 7.3482C41.9767 7.31089 42.2408 7.20593 42.4683 7.04257C42.6957 6.8792 42.8795 6.66243 43.0034 6.41134L43.4076 5.62145ZM25.7176 5.62145L26.1217 6.44808C26.2443 6.70016 26.4278 6.91777 26.6554 7.08132C26.8831 7.24486 27.1479 7.3492 27.4259 7.38494L28.3261 7.53189L27.6648 8.17483C27.4677 8.36802 27.3199 8.6056 27.2336 8.86768C27.1473 9.12976 27.1251 9.40871 27.1688 9.68115L27.3157 10.5996L26.4891 10.1771C26.2452 10.05 25.9742 9.98355 25.6992 9.98355C25.4242 9.98355 25.1532 10.05 24.9093 10.1771L24.0643 10.618L24.2296 9.69952C24.2819 9.4257 24.2657 9.14319 24.1824 8.87717C24.099 8.61115 23.9512 8.36987 23.752 8.17483L23.0907 7.45841L24.0092 7.3482C24.2833 7.30098 24.5432 7.19213 24.7691 7.02984C24.995 6.86755 25.1812 6.65606 25.3134 6.41134L25.7176 5.62145ZM8.02755 5.62145L8.43169 6.46645C8.55029 6.7196 8.72985 6.93938 8.95426 7.10609C9.17868 7.2728 9.44095 7.38123 9.71757 7.42168L10.6361 7.55026L9.97474 8.1932C9.77037 8.38554 9.61653 8.62527 9.52682 8.8912C9.43711 9.15712 9.41429 9.44105 9.46039 9.71789L9.60735 10.618L8.79908 10.1955C8.5552 10.0683 8.28423 10.0019 8.00918 10.0019C7.73414 10.0019 7.46317 10.0683 7.21929 10.1955L6.37428 10.6364L6.53961 9.71789C6.57995 9.44418 6.55795 9.16491 6.47525 8.9009C6.39255 8.63689 6.25128 8.39497 6.062 8.1932L5.38232 7.45841L6.31917 7.3482C6.59003 7.29841 6.84622 7.18837 7.0688 7.0262C7.29138 6.86404 7.47465 6.6539 7.60505 6.41134L8.02755 5.62145ZM43.4443 0.110539C43.1249 0.104865 42.8103 0.189865 42.5372 0.355683C42.2641 0.521501 42.0436 0.761342 41.9013 1.04739L40.4133 4.07839L36.9414 4.57437C36.6252 4.61158 36.3257 4.73641 36.0766 4.93479C35.8276 5.13318 35.6389 5.39721 35.532 5.69711C35.425 5.99701 35.404 6.32084 35.4712 6.63205C35.5385 6.94327 35.6914 7.22949 35.9127 7.45841L38.411 9.91995L37.8048 13.3551C37.75 13.6705 37.7839 13.995 37.9028 14.2922C38.0218 14.5895 38.221 14.8478 38.4782 15.0384C38.7355 15.229 39.0407 15.3442 39.3597 15.3714C39.6787 15.3985 39.999 15.3364 40.2847 15.1921L43.3892 13.5572L46.2916 15.1002C46.5977 15.2533 46.9405 15.3179 47.2813 15.2866C47.6221 15.2553 47.9474 15.1295 48.2206 14.9232C48.4937 14.7169 48.7037 14.4385 48.827 14.1192C48.9504 13.7999 48.982 13.4526 48.9185 13.1163L48.3858 9.95669L50.9024 7.53189C51.138 7.31112 51.3062 7.02812 51.3875 6.71568C51.4688 6.40324 51.4599 6.07416 51.3619 5.76656C51.2638 5.45896 51.0806 5.18543 50.8335 4.97769C50.5864 4.76994 50.2854 4.63647 49.9656 4.59274L46.4937 4.07839L44.969 0.937175C44.828 0.653962 44.6104 0.416007 44.3408 0.250384C44.0713 0.0847604 43.7607 -0.00187979 43.4443 0.000320715V0.110539ZM25.7176 0.000320715C25.3977 -0.0075877 25.0822 0.0764848 24.8087 0.242553C24.5352 0.408621 24.3151 0.649707 24.1745 0.937175L22.5947 4.07839L19.1412 4.57437C18.8341 4.6284 18.5477 4.76544 18.3129 4.97064C18.0781 5.17585 17.904 5.4414 17.8094 5.7385C17.7148 6.03561 17.7033 6.35294 17.7761 6.65612C17.849 6.9593 18.0034 7.23675 18.2227 7.45841L20.721 9.91995L20.0964 13.3551C20.0416 13.6705 20.0755 13.995 20.1945 14.2922C20.3134 14.5895 20.5126 14.8478 20.7699 15.0384C21.0271 15.229 21.3323 15.3442 21.6513 15.3714C21.9703 15.3985 22.2906 15.3364 22.5763 15.1921L25.7176 13.5755L28.6383 15.1186C28.9416 15.2603 29.2777 15.3166 29.6106 15.2812C29.9434 15.2458 30.2603 15.1202 30.5269 14.9179C30.7935 14.7155 30.9998 14.4442 31.1234 14.1331C31.2471 13.8221 31.2834 13.4832 31.2285 13.153L30.6958 9.97506L33.2124 7.55026C33.448 7.32949 33.6161 7.04649 33.6975 6.73405C33.7788 6.42161 33.7699 6.09252 33.6719 5.78492C33.5738 5.47733 33.3906 5.2038 33.1435 4.99606C32.8964 4.78831 32.5954 4.65484 32.2755 4.61111L28.8037 4.09676L27.2606 0.955545C27.1227 0.664646 26.9037 0.419758 26.63 0.250306C26.3563 0.0808552 26.0394 -0.00595025 25.7176 0.000320715ZM8.02755 0.000320715C7.70501 -0.00887709 7.38657 0.0744563 7.10988 0.240472C6.83318 0.406488 6.6098 0.648247 6.46613 0.937175L4.95982 4.07839L1.48794 4.57437C1.17631 4.62018 0.883401 4.75125 0.641593 4.9531C0.399785 5.15496 0.21849 5.41973 0.117743 5.71817C0.0169957 6.01661 0.000718746 6.3371 0.0707107 6.64421C0.140703 6.95132 0.294238 7.2331 0.514351 7.45841L3.01263 9.93832L2.4248 13.3735C2.36996 13.6889 2.4039 14.0133 2.52282 14.3106C2.64174 14.6079 2.84096 14.8662 3.09822 15.0568C3.35549 15.2473 3.66067 15.3626 3.97968 15.3898C4.29868 15.4169 4.61895 15.3548 4.90471 15.2104L8.00918 13.5755L10.8932 15.1186C11.1978 15.2701 11.5384 15.334 11.8772 15.3033C12.216 15.2726 12.5395 15.1484 12.8119 14.9447C13.0842 14.7409 13.2947 14.4655 13.4197 14.1491C13.5447 13.8328 13.5795 13.4879 13.5201 13.153L12.9874 9.97506L15.504 7.55026C15.7396 7.32949 15.9078 7.04649 15.9891 6.73405C16.0704 6.42161 16.0615 6.09252 15.9635 5.78492C15.8654 5.47733 15.6822 5.2038 15.4351 4.99606C15.188 4.78831 14.887 4.65484 14.5672 4.61111L11.1137 4.09676L9.58898 0.955545C9.44886 0.670251 9.23192 0.429706 8.96257 0.260956C8.69322 0.0922063 8.38214 0.00194461 8.06429 0.000320715H8.02755Z" fill="#FFAF29"/>
</g>
<defs>
<clipPath id="clip0_16_1077">
<rect width="51.4351" height="48" fill="white"/>
</clipPath>
</defs>
</svg>
