<svg width="64" height="64" viewBox="0 0 64 64" fill="none" xmlns="http://www.w3.org/2000/svg">
<g id="Website">
<path id="Vector" d="M27.7486 55.4743H36.2743V59.7257H27.7486V55.4743ZM17.3257 46.9486H46.6743C46.4829 47.7825 46.1081 48.5633 45.5771 49.2343C44.9468 49.9308 44.1604 50.4679 43.2823 50.8017C42.4042 51.1354 41.4595 51.2563 40.5257 51.1543H23.4743C22.544 51.2544 21.6033 51.1326 20.7292 50.7988C19.8551 50.4651 19.0725 49.9289 18.4457 49.2343C17.9073 48.565 17.5247 47.7842 17.3257 46.9486ZM10.6743 36.2743C10.1105 36.2743 9.56983 36.4982 9.17118 36.8969C8.77253 37.2955 8.54857 37.8362 8.54857 38.4C8.54857 38.9638 8.77253 39.5045 9.17118 39.9031C9.56983 40.3018 10.1105 40.5257 10.6743 40.5257H21.3486C21.9123 40.5257 22.453 40.3018 22.8517 39.9031C23.2503 39.5045 23.4743 38.9638 23.4743 38.4C23.4743 37.8362 23.2503 37.2955 22.8517 36.8969C22.453 36.4982 21.9123 36.2743 21.3486 36.2743H10.6743ZM32 33.9886H34.0571L36.3429 34.24V36.1143H32V33.9886ZM10.6743 28.8C10.3751 28.769 10.0727 28.8012 9.78668 28.8945C9.50069 28.9878 9.23747 29.1401 9.01408 29.3415C8.79068 29.543 8.61207 29.7891 8.48982 30.064C8.36757 30.3389 8.3044 30.6363 8.3044 30.9371C8.3044 31.238 8.36757 31.5354 8.48982 31.8103C8.61207 32.0852 8.79068 32.3313 9.01408 32.5327C9.23747 32.7342 9.50069 32.8865 9.78668 32.9798C10.0727 33.0731 10.3751 33.1053 10.6743 33.0743H17.0743C17.3735 33.1053 17.6759 33.0731 17.9619 32.9798C18.2479 32.8865 18.5111 32.7342 18.7345 32.5327C18.9579 32.3313 19.1365 32.0852 19.2588 31.8103C19.381 31.5354 19.4442 31.238 19.4442 30.9371C19.4442 30.6363 19.381 30.3389 19.2588 30.064C19.1365 29.7891 18.9579 29.543 18.7345 29.3415C18.5111 29.1401 18.2479 28.9878 17.9619 28.8945C17.6759 28.8012 17.3735 28.769 17.0743 28.8H10.6743ZM51.2 23.4971V31.52L34.4914 29.7143H29.92V25.3714H34.4914L51.2 23.4971ZM10.6743 21.3486C10.3951 21.3486 10.1187 21.4036 9.86081 21.5104C9.60291 21.6172 9.36857 21.7738 9.17118 21.9712C8.97379 22.1686 8.81721 22.4029 8.71038 22.6608C8.60356 22.9187 8.54857 23.1951 8.54857 23.4743C8.54857 23.7534 8.60356 24.0299 8.71038 24.2878C8.81721 24.5457 8.97379 24.78 9.17118 24.9774C9.36857 25.1748 9.60291 25.3314 9.86081 25.4382C10.1187 25.545 10.3951 25.6 10.6743 25.6H19.2229C19.502 25.6 19.7784 25.545 20.0363 25.4382C20.2942 25.3314 20.5286 25.1748 20.726 24.9774C20.9234 24.78 21.0799 24.5457 21.1868 24.2878C21.2936 24.0299 21.3486 23.7534 21.3486 23.4743C21.3486 23.1951 21.2936 22.9187 21.1868 22.6608C21.0799 22.4029 20.9234 22.1686 20.726 21.9712C20.5286 21.7738 20.2942 21.6172 20.0363 21.5104C19.7784 21.4036 19.502 21.3486 19.2229 21.3486H10.6743ZM50.9943 19.2229L34.0571 21.12H29.8743C28.7465 21.1259 27.6662 21.575 26.8665 22.3704C26.0669 23.1658 25.612 24.2436 25.6 25.3714V29.7143C25.6043 30.4564 25.8028 31.1844 26.1757 31.826C26.5487 32.4676 27.083 33.0004 27.7257 33.3714V36.1143C27.7552 37.2322 28.2172 38.2952 29.0143 39.0795C29.8115 39.8639 30.8817 40.3086 32 40.32H36.2743C37.4021 40.308 38.4799 39.8531 39.2753 39.0535C40.0707 38.2538 40.5198 37.1735 40.5257 36.0457V34.6514L50.9943 35.8171C51.566 35.8811 52.1447 35.8244 52.6932 35.6509C53.2416 35.4773 53.7476 35.1906 54.1783 34.8094C54.6091 34.4281 54.9552 33.9608 55.1941 33.4375C55.4331 32.9142 55.5597 32.3467 55.5657 31.7714V23.2686C55.5597 22.6933 55.4331 22.1258 55.1941 21.6025C54.9552 21.0792 54.6091 20.6119 54.1783 20.2306C53.7476 19.8494 53.2416 19.5627 52.6932 19.3891C52.1447 19.2156 51.566 19.1589 50.9943 19.2229ZM8.52571 10.6743H12.8V12.8C12.5008 12.769 12.1984 12.8012 11.9124 12.8945C11.6264 12.9878 11.3632 13.1401 11.1398 13.3415C10.9164 13.543 10.7378 13.7891 10.6155 14.064C10.4933 14.3389 10.4301 14.6363 10.4301 14.9371C10.4301 15.238 10.4933 15.5354 10.6155 15.8103C10.7378 16.0852 10.9164 16.3313 11.1398 16.5327C11.3632 16.7342 11.6264 16.8865 11.9124 16.9798C12.1984 17.0731 12.5008 17.1053 12.8 17.0743H17.0743C17.3735 17.1053 17.6759 17.0731 17.9619 16.9798C18.2479 16.8865 18.5111 16.7342 18.7345 16.5327C18.9579 16.3313 19.1365 16.0852 19.2588 15.8103C19.381 15.5354 19.4442 15.238 19.4442 14.9371C19.4442 14.6363 19.381 14.3389 19.2588 14.064C19.1365 13.7891 18.9579 13.543 18.7345 13.3415C18.5111 13.1401 18.2479 12.9878 17.9619 12.8945C17.6759 12.8012 17.3735 12.769 17.0743 12.8V10.6743H46.9486V12.8C46.6494 12.769 46.347 12.8012 46.061 12.8945C45.775 12.9878 45.5118 13.1401 45.2884 13.3415C45.065 13.543 44.8864 13.7891 44.7641 14.064C44.6419 14.3389 44.5787 14.6363 44.5787 14.9371C44.5787 15.238 44.6419 15.5354 44.7641 15.8103C44.8864 16.0852 45.065 16.3313 45.2884 16.5327C45.5118 16.7342 45.775 16.8865 46.061 16.9798C46.347 17.0731 46.6494 17.1053 46.9486 17.0743H51.2229C51.5221 17.1053 51.8245 17.0731 52.1105 16.9798C52.3965 16.8865 52.6597 16.7342 52.8831 16.5327C53.1065 16.3313 53.2851 16.0852 53.4073 15.8103C53.5296 15.5354 53.5927 15.238 53.5927 14.9371C53.5927 14.6363 53.5296 14.3389 53.4073 14.064C53.2851 13.7891 53.1065 13.543 52.8831 13.3415C52.6597 13.1401 52.3965 12.9878 52.1105 12.8945C51.8245 12.8012 51.5221 12.769 51.2229 12.8V10.6743H55.4743C56.0362 10.6681 56.5937 10.7746 57.1138 10.9875C57.6339 11.2004 58.1061 11.5154 58.5024 11.9138C58.8987 12.3123 59.2112 12.7861 59.4213 13.3074C59.6314 13.8286 59.7349 14.3867 59.7257 14.9486V38.4229C59.7318 38.9829 59.6261 39.5385 59.4146 40.057C59.2031 40.5756 58.8902 41.0467 58.4941 41.4427C58.0981 41.8387 57.627 42.1516 57.1085 42.3631C56.5899 42.5746 56.0343 42.6804 55.4743 42.6743H8.52571C7.96571 42.6804 7.41012 42.5746 6.89155 42.3631C6.37298 42.1516 5.90187 41.8387 5.50586 41.4427C5.10985 41.0467 4.79693 40.5756 4.58544 40.057C4.37395 39.5385 4.26817 38.9829 4.27429 38.4229V14.9486C4.26509 14.3867 4.3686 13.8286 4.57871 13.3074C4.78882 12.7861 5.10127 12.3123 5.49759 11.9138C5.89391 11.5154 6.36606 11.2004 6.88616 10.9875C7.40626 10.7746 7.96376 10.6681 8.52571 10.6743ZM44.8 4.27429H46.9486V6.42286H44.8V4.27429ZM10.6743 4.27429H12.8V6.42286H10.6743V4.27429ZM10.6743 0C9.54436 0.0118949 8.46408 0.466039 7.66506 1.26506C6.86604 2.06408 6.4119 3.14436 6.4 4.27429V6.72C4.57514 7.19384 2.95812 8.25766 1.80062 9.74588C0.643111 11.2341 0.0100613 13.0632 0 14.9486V38.4229C0.012008 40.6803 0.914106 42.8419 2.51039 44.4382C4.10668 46.0345 6.26826 46.9366 8.52571 46.9486H12.9829C13.2623 48.8253 14.0531 50.5888 15.2686 52.0457C16.3127 53.1942 17.5983 54.0973 19.0328 54.6901C20.4674 55.2829 22.0154 55.5507 23.5657 55.4743V59.7257H21.44C20.9113 59.7805 20.4217 60.0292 20.0657 60.424C19.7098 60.8187 19.5127 61.3313 19.5127 61.8629C19.5127 62.3944 19.7098 62.907 20.0657 63.3018C20.4217 63.6965 20.9113 63.9453 21.44 64H42.7657C43.2944 63.9453 43.784 63.6965 44.14 63.3018C44.496 62.907 44.693 62.3944 44.693 61.8629C44.693 61.3313 44.496 60.8187 44.14 60.424C43.784 60.0292 43.2944 59.7805 42.7657 59.7257H40.6171V55.4743C42.1705 55.5477 43.721 55.2787 45.1588 54.6862C46.5966 54.0937 47.8865 53.1922 48.9371 52.0457C50.1526 50.5888 50.9435 48.8253 51.2229 46.9486H55.6571C57.8827 46.8892 59.9978 45.9663 61.5549 44.3751C63.112 42.7838 63.9889 40.6492 64 38.4229V14.9486C63.994 12.6893 63.0938 10.5242 61.4962 8.92665C59.8986 7.32907 57.7336 6.42889 55.4743 6.42286H51.2229V4.27429C51.211 3.14436 50.7568 2.06408 49.9578 1.26506C49.1588 0.466039 48.0785 0.0118949 46.9486 0H44.8C43.6701 0.0118949 42.5898 0.466039 41.7908 1.26506C40.9918 2.06408 40.5376 3.14436 40.5257 4.27429V6.42286H17.0743V4.27429C17.0624 3.14436 16.6082 2.06408 15.8092 1.26506C15.0102 0.466039 13.9299 0.0118949 12.8 0H10.6743Z" fill="#FFAF29"/>
</g>
</svg>
